<svg xmlns="http://www.w3.org/2000/svg" width="960" height="280" viewBox="0 0 960 280">
  <defs>
    <linearGradient id="blue" x1="0" y1="0" x2="1" y2="1">
      <stop stop-color="#55a9f4"/>
      <stop offset="1" stop-color="#156bc4"/>
    </linearGradient>
    <linearGradient id="ink" x1="0" y1="0" x2="1" y2="1">
      <stop stop-color="#1b2635"/>
      <stop offset="1" stop-color="#0e1219"/>
    </linearGradient>
    <filter id="shadow" x="-30%" y="-30%" width="160%" height="180%">
      <feDropShadow dx="0" dy="10" stdDeviation="10" flood-color="#10243c" flood-opacity=".18"/>
    </filter>
  </defs>
  <rect width="960" height="280" rx="24" fill="#f7f7f4"/>
  <text x="40" y="42" fill="#20242a" font-family="Arial, sans-serif" font-size="20" font-weight="700">Choose an SG icon direction</text>

  <g transform="translate(40 70)">
    <rect width="200" height="168" rx="18" fill="#fff" stroke="#dde2e9"/>
    <rect x="60" y="20" width="80" height="80" rx="22" fill="url(#blue)" filter="url(#shadow)"/>
    <text x="100" y="72" text-anchor="middle" fill="#fff" font-family="Arial, sans-serif" font-size="30" font-weight="800" letter-spacing="-2">SG</text>
    <text x="100" y="128" text-anchor="middle" fill="#20242a" font-family="Arial, sans-serif" font-size="15" font-weight="700">A · Modern tile</text>
    <text x="100" y="149" text-anchor="middle" fill="#69717c" font-family="Arial, sans-serif" font-size="11">Clear and familiar</text>
  </g>

  <g transform="translate(266 70)">
    <rect width="200" height="168" rx="18" fill="#fff" stroke="#dde2e9"/>
    <circle cx="100" cy="60" r="40" fill="url(#ink)" filter="url(#shadow)"/>
    <circle cx="100" cy="60" r="35" fill="none" stroke="#4697e5" stroke-width="2"/>
    <text x="100" y="70" text-anchor="middle" fill="#fff" font-family="Georgia, serif" font-size="29" font-weight="700" letter-spacing="-2">SG</text>
    <text x="100" y="128" text-anchor="middle" fill="#20242a" font-family="Arial, sans-serif" font-size="15" font-weight="700">B · Signature seal</text>
    <text x="100" y="149" text-anchor="middle" fill="#69717c" font-family="Arial, sans-serif" font-size="11">Personal and premium</text>
  </g>

  <g transform="translate(492 70)">
    <rect width="200" height="168" rx="18" fill="#fff" stroke="#dde2e9"/>
    <rect x="60" y="20" width="80" height="80" rx="18" fill="#f2f7fc" stroke="#2782d6" stroke-width="2" filter="url(#shadow)"/>
    <path d="M87 45c-2-5-7-8-13-8-7 0-12 4-12 10 0 7 6 9 13 11 7 2 11 3 11 8 0 4-4 7-10 7-7 0-12-3-15-8" fill="none" stroke="#1f79cb" stroke-width="5" stroke-linecap="round"/>
    <path d="M118 42c-3-3-7-5-12-5-11 0-18 8-18 19s7 19 18 19c5 0 9-1 13-4V57h-14" fill="none" stroke="#172333" stroke-width="5" stroke-linecap="round" stroke-linejoin="round"/>
    <text x="100" y="128" text-anchor="middle" fill="#20242a" font-family="Arial, sans-serif" font-size="15" font-weight="700">C · Line monogram</text>
    <text x="100" y="149" text-anchor="middle" fill="#69717c" font-family="Arial, sans-serif" font-size="11">Distinctive and editorial</text>
  </g>

  <g transform="translate(718 70)">
    <rect width="200" height="168" rx="18" fill="#fff" stroke="#dde2e9"/>
    <path d="M100 17 143 42v48l-43 25-43-25V42Z" fill="url(#blue)" filter="url(#shadow)"/>
    <path d="M100 24 136 45v41l-36 21-36-21V45Z" fill="none" stroke="#fff" stroke-opacity=".4"/>
    <text x="100" y="76" text-anchor="middle" fill="#fff" font-family="Arial, sans-serif" font-size="28" font-weight="800" letter-spacing="-2">SG</text>
    <text x="100" y="128" text-anchor="middle" fill="#20242a" font-family="Arial, sans-serif" font-size="15" font-weight="700">D · Growth badge</text>
    <text x="100" y="149" text-anchor="middle" fill="#69717c" font-family="Arial, sans-serif" font-size="11">Bold and performance-led</text>
  </g>
</svg>
